<?xml version="1.0" encoding="UTF-8" standalone="no"?>
<svg
   xmlns:dc="http://purl.org/dc/elements/1.1/"
   xmlns:cc="http://creativecommons.org/ns#"
   xmlns:rdf="http://www.w3.org/1999/02/22-rdf-syntax-ns#"
   xmlns:svg="http://www.w3.org/2000/svg"
   xmlns="http://www.w3.org/2000/svg"
   xmlns:xlink="http://www.w3.org/1999/xlink"
   xmlns:sodipodi="http://sodipodi.sourceforge.net/DTD/sodipodi-0.dtd"
   xmlns:inkscape="http://www.inkscape.org/namespaces/inkscape"
   enable-background="new 0 0 500 500"
   xml:space="preserve"
   version="1.1"
   y="0px"
   x="0px"
   viewBox="0 0 500 500"
   id="svg2"
   inkscape:version="0.48.4 r9939"
   width="100%"
   height="100%"
   sodipodi:docname="Baseball_Sports2010.svg"><defs
     id="defs146"><radialGradient
       id="radialGradient3941"
       xlink:href="#linearGradient3994"
       gradientUnits="userSpaceOnUse"
       cy="420.10999"
       cx="441.62"
       gradientTransform="matrix(-0.024472,-0.82699,1.1306,-0.1524,-139.14,846.54)"
       r="96.769997" /><linearGradient
       id="linearGradient3994"><stop
         id="stop3996"
         stop-color="#fff"
         offset="0" /><stop
         id="stop3998"
         stop-color="#fff"
         stop-opacity="0"
         offset="1" /></linearGradient><radialGradient
       r="96.769997"
       cy="420.10999"
       cx="441.62"
       gradientTransform="matrix(-0.024472,-0.82699,1.1306,-0.1524,-139.14,846.54)"
       gradientUnits="userSpaceOnUse"
       id="radialGradient3066"
       xlink:href="#linearGradient3994"
       inkscape:collect="always" /><radialGradient
       r="96.769997"
       cy="420.10999"
       cx="441.62"
       gradientTransform="matrix(-0.024472,-0.82699,1.1306,-0.1524,-139.14,846.54)"
       gradientUnits="userSpaceOnUse"
       id="radialGradient3066-4"
       xlink:href="#linearGradient3994-4"
       inkscape:collect="always" /><linearGradient
       id="linearGradient3994-4"><stop
         id="stop3996-8"
         stop-color="#fff"
         offset="0" /><stop
         id="stop3998-3"
         stop-color="#fff"
         stop-opacity="0"
         offset="1" /></linearGradient><radialGradient
       r="96.769997"
       cy="420.10999"
       cx="441.62"
       gradientTransform="matrix(-0.024472,-0.82699,1.1306,-0.1524,-139.14,846.54)"
       gradientUnits="userSpaceOnUse"
       id="radialGradient4042"
       xlink:href="#linearGradient3994-4"
       inkscape:collect="always" /><radialGradient
       inkscape:collect="always"
       xlink:href="#linearGradient3994-4"
       id="radialGradient4083"
       gradientUnits="userSpaceOnUse"
       gradientTransform="matrix(-0.024472,-0.82699,1.1306,-0.1524,-139.14,846.54)"
       cx="441.62"
       cy="420.10999"
       r="96.769997" /></defs><sodipodi:namedview
     pagecolor="#ffffff"
     bordercolor="#666666"
     borderopacity="1"
     objecttolerance="10"
     gridtolerance="10"
     guidetolerance="10"
     inkscape:pageopacity="0"
     inkscape:pageshadow="2"
     inkscape:window-width="1311"
     inkscape:window-height="744"
     id="namedview144"
     showgrid="false"
     inkscape:zoom="1"
     inkscape:cx="258"
     inkscape:cy="290"
     inkscape:window-x="55"
     inkscape:window-y="24"
     inkscape:window-maximized="1"
     inkscape:current-layer="layer4" /><g
     id="Art"><g
       id="Outline"><path
         d="m24.923 223.69s-9.23-96.924 98.462-166.92c2.308-7.692 35.385-33.077 57.692-23.077 14.615-5.385 72.308-17.237 114.62-10.926s89.231 30.157 107.69 45.542c10.77 1.539 44.614 26.154 46.153 39.231 13.85 18.46 43.08 46.92 42.32 128.46s-33.845 130.77-45.384 145.38-36.154 48.461-73.077 64.615c0 7.692-12.309 13.846-18.462 15.385s-21.537 10.769-30.769 0c-13.847 2.308-80.77 23.077-159.23-2.308s-114.62-85.38-133.08-161.53c-3.846-4.615-12.308-10.001-13.077-31.539s-2.312-40 6.15-42.31z"
         id="path6" /></g><g
       id="Color"><radialGradient
         id="SVGID_1_"
         gradientUnits="userSpaceOnUse"
         cy="246.27"
         cx="255"
         r="221.38"><stop
           stop-color="#fff"
           offset="0"
           id="stop10" /><stop
           stop-color="#D9D9D9"
           offset=".7299"
           id="stop12" /><stop
           stop-color="#ccc"
           offset=".8736"
           id="stop14" /><stop
           stop-color="#969696"
           offset="1"
           id="stop16" /></radialGradient><path
         d="m34.655 224.65s-8.84-92.824 94.297-159.86c2.21-7.366 33.888-31.677 55.252-22.101 13.997-5.157 69.249-16.508 109.77-10.464 40.519 6.044 85.458 28.881 103.14 43.615 10.314 1.474 42.728 25.047 44.201 37.571 13.261 17.681 41.254 44.938 40.519 123.03-0.736 78.09-32.414 125.24-43.465 139.24s-34.625 46.411-69.986 61.882c0 7.367-11.787 13.26-17.681 14.734-5.893 1.474-20.626 10.312-29.467 0-13.262 2.21-77.354 22.101-152.5-2.21-75.13-24.32-109.75-81.78-127.44-154.71-3.684-4.42-11.788-9.578-12.524-30.205-0.732-20.62-2.205-38.3 5.899-40.51z"
         fill="url(#SVGID_1_)"
         id="path18" /></g><g
       id="Laces"><g
         id="Holes"><circle
           cy="66"
           cx="181"
           r="3.846"
           id="circle22" /><circle
           cy="102.15"
           cx="178"
           r="3.846"
           id="circle24" /><circle
           cy="139.54"
           cx="171.54"
           r="4.231"
           id="circle26" /><circle
           cy="176"
           cx="151.15"
           r="4.615"
           id="circle28" /><circle
           cy="205.69"
           cx="120.54"
           r="4.615"
           id="circle30" /><circle
           cy="235.85"
           cx="90.608"
           r="4.615"
           id="circle32" /><circle
           cy="258.27"
           cx="67.863"
           r="3.846"
           id="circle34" /><circle
           cy="194.08"
           cx="57.886"
           r="5"
           id="circle36" /><circle
           cy="171.54"
           cx="78.308"
           r="4.615"
           id="circle38" /><circle
           cy="149.08"
           cx="99.539"
           r="3.846"
           id="circle40" /><circle
           cy="127.5"
           cx="117.96"
           r="4.039"
           id="circle42" /><circle
           cy="102.54"
           cx="123.77"
           r="4.231"
           id="circle44" /><circle
           cy="76.076"
           cx="127.38"
           r="4.231"
           id="circle46" /><circle
           cy="212.15"
           cx="38"
           r="3.846"
           id="circle48" /><circle
           cy="89.846"
           cx="364.15"
           r="5.385"
           id="circle50" /><circle
           cy="119.46"
           cx="330.69"
           r="5"
           id="circle52" /><circle
           cy="141"
           cx="299.15"
           r="4.231"
           id="circle54" /><circle
           cy="180.81"
           cx="281.27"
           r="4.808"
           id="circle56" /><circle
           cy="225.71"
           cx="276.17"
           r="5.096"
           id="circle58" /><circle
           cy="273.54"
           cx="289.08"
           r="5"
           id="circle60" /><circle
           cy="306.58"
           cx="304.35"
           r="5.192"
           id="circle62" /><circle
           cy="336"
           cx="317.23"
           r="4.616"
           id="circle64" /><circle
           cy="370.23"
           cx="330.69"
           r="5"
           id="circle66" /><circle
           cy="396.38"
           cx="335.69"
           r="5"
           id="circle68" /><circle
           cy="420.11"
           cx="324.27"
           r="4.423"
           id="circle70" /><circle
           cy="124.46"
           cx="408.38"
           r="5"
           id="circle72" /><circle
           cy="141"
           cx="381.46"
           r="4.23"
           id="circle74" /><circle
           cy="167.54"
           cx="363.38"
           r="4.615"
           id="circle76" /><circle
           cy="199.08"
           cx="351.08"
           r="4.615"
           id="circle78" /><circle
           cy="229.85"
           cx="351.08"
           r="4.615"
           id="circle80" /><circle
           cy="259.85"
           cx="357.62"
           r="6.154"
           id="circle82" /><circle
           cy="289.85"
           cx="361.85"
           r="6.154"
           id="circle84" /><circle
           cy="316.96"
           cx="382.42"
           r="5.193"
           id="circle86" /><circle
           cy="350.42"
           cx="392.81"
           r="5.192"
           id="circle88" /><circle
           cy="388.88"
           cx="392.81"
           r="5.192"
           id="circle90" /><circle
           cy="416.36"
           cx="381.98"
           r="3.75"
           id="circle92" /></g><g
         id="Thread"
         stroke="#ED1C24"
         stroke-miterlimit="10"
         fill="none"><g
           id="Left_x5F_Side"><path
             stroke-width="8"
             d="m123.77 102.54c25.77 25.769 38.564 11.923 54.231-0.385"
             id="path96" /><path
             stroke-width="8"
             d="m127.81 76.317c30.06 20.604 40.098 4.645 53.24-10.328"
             id="path98" /><path
             stroke-width="7"
             d="m134.52 61.918c26.086 4.989 34.118-5.844 44.811-16.787"
             id="path100" /><path
             stroke-width="8"
             d="m118.44 127.41c18.868 31.179 34.6 20.791 52.753 12.583"
             id="path102" /><path
             stroke-width="8"
             d="m102.06 151.39c11.206 34.678 28.903 28.178 48.456 24.356"
             id="path104" /><path
             stroke-width="8"
             d="m78.174 171.93c3.744 36.251 22.406 33.577 42.326 33.908"
             id="path106" /><path
             stroke-width="8"
             d="m57.886 194.08c-5.257 36.062 13.491 38.045 32.722 43.25"
             id="path108" /><path
             stroke-width="8"
             d="m37.36 213.42c-7.066 35.752 11.559 38.676 30.503 44.842"
             id="path110" /></g><g
           id="Right_x5F_Side"
           stroke-width="8"><path
             d="m332.5 120.06c13.868 33.701 31.006 25.846 50.202 20.516"
             id="path113" /><path
             d="m363.58 91.033c7.333 35.697 25.637 31.179 45.49 29.526"
             id="path115" /><path
             d="m396.42 77.885c2.738 35.884 21.19 33.265 40.802 33.622"
             id="path117" /><path
             d="m299.23 144.04c20.529 35.308 40.141 27.919 62.512 23.217"
             id="path119" /><path
             d="m281.16 182.51c26.567 33.543 46.47 24.416 69.667 17.736"
             id="path121" /><path
             d="m276.95 228.14c34.446 27.441 52.818 14.457 75.092 3.199"
             id="path123" /><path
             d="m290.37 274.57c38.176 17.697 51.188 0.517 68.155-15.991"
             id="path125" /><path
             d="m303.45 309.49c37.198 14.746 47.229-3.2 60.983-20.768"
             id="path127" /><path
             d="m319.34 338.04c37.198 14.746 47.229-3.2 60.983-20.768"
             id="path129" /><path
             d="m332.89 371.19c37.198 14.746 47.229-3.2 60.983-20.768"
             id="path131" /><path
             d="m333.83 398.37c33.142 21.052 45.615 5.164 61.583-9.695"
             id="path133" /><path
             d="m324.52 420.25c28.542 24.251 41.266 9.693 57.097-3.493"
             id="path135" /></g></g><g
         id="Seams"
         stroke="#BE1E2D"
         stroke-width="3"
         stroke-miterlimit="10"
         fill="none"><path
           d="m416.82 84.461c-217.73 131.24 0 217.38-66.124 367.82"
           id="path138" /><path
           d="m151.15 45.131c0 121.62-77.461 161.51-122.39 220.03"
           id="path140" /></g></g></g><metadata
     id="metadata142"><rdf:RDF><cc:Work><dc:format>image/svg+xml</dc:format><dc:type
           rdf:resource="http://purl.org/dc/dcmitype/StillImage" /><cc:license
           rdf:resource="http://creativecommons.org/licenses/publicdomain/" /><dc:publisher><cc:Agent
             rdf:about="http://openclipart.org/"><dc:title>Openclipart</dc:title></cc:Agent></dc:publisher><dc:title></dc:title><dc:date>2010-08-02T00:01:04</dc:date><dc:description>A baseball, created for the Sports 2010 Clip Art Package Release.</dc:description><dc:source>http://openclipart.org/detail/75919/baseball-by-pianobrad</dc:source><dc:creator><cc:Agent><dc:title>pianoBrad</dc:title></cc:Agent></dc:creator><dc:subject><rdf:Bag><rdf:li>athletics</rdf:li><rdf:li>ball</rdf:li><rdf:li>baseball</rdf:li><rdf:li>clip art</rdf:li><rdf:li>clipart</rdf:li><rdf:li>game</rdf:li><rdf:li>national pastime</rdf:li><rdf:li>outdoors</rdf:li><rdf:li>sports</rdf:li><rdf:li>sports2010</rdf:li></rdf:Bag></dc:subject></cc:Work><cc:License
         rdf:about="http://creativecommons.org/licenses/publicdomain/"><cc:permits
           rdf:resource="http://creativecommons.org/ns#Reproduction" /><cc:permits
           rdf:resource="http://creativecommons.org/ns#Distribution" /><cc:permits
           rdf:resource="http://creativecommons.org/ns#DerivativeWorks" /></cc:License></rdf:RDF></metadata><g
     inkscape:groupmode="layer"
     id="layer5"
     inkscape:label="Shading"><g
       style="enable-background:new"
       id="g3927"
       transform="matrix(2.420267,0,0,2.420267,-567.93575,-899.00705)"><path
         inkscape:connector-curvature="0"
         id="path3929"
         style="opacity:0.57347999;color:#000000;fill:url(#radialGradient4083);enable-background:accumulate"
         d="m 430.92,482.05 c 0.60245,50.356 -44.619,101.29 -95.041,104.63 -59.92,3.9733 -95.425,-53.978 -96.47,-98.995 -1.1854,-51.062 44.533,-92.972 94.954,-96.387 53.354,-3.6135 95.903,36.118 96.556,90.751 z"
         transform="matrix(1,0.054795,0,1,6.0609,-26.485)" /></g></g><g
     inkscape:groupmode="layer"
     id="layer4"
     inkscape:label="Pips"><g
       style="stroke:#000000;stroke-width:1.99993252999999993;stroke-linecap:round;enable-background:new;fill:#000000;fill-opacity:1;stroke-miterlimit:4;stroke-dasharray:none;stroke-opacity:1"
       id="layer4-2"
       transform="matrix(2.4515827,0,0,2.4515827,-580.13398,-937.31432)"><path
         inkscape:connector-curvature="0"
         id="path3901"
         style="opacity:0.56989003999999999;color:#000000;enable-background:accumulate;fill:#000000;fill-opacity:1;stroke-width:1.99993252999999993;stroke-miterlimit:4;stroke-dasharray:none;stroke:#000000;stroke-opacity:1"
         transform="translate(-2.5,0)"
         d="m 352.54,427.33 a 12.3745,7.8290163 0 1 1 -24.749,0 12.3745,7.8290163 0 1 1 24.749,0 z" /><path
         inkscape:connector-curvature="0"
         id="path3903"
         style="opacity:0.55556000000000005;color:#000000;enable-background:accumulate;fill:#000000;fill-opacity:1;stroke-width:1.99993252999999993;stroke-miterlimit:4;stroke-dasharray:none;stroke:#000000;stroke-opacity:1"
         transform="translate(-52.232,-2.766e-7)"
         d="m 352.54,427.33 a 12.3745,7.8290163 0 1 1 -24.749,0 12.3745,7.8290163 0 1 1 24.749,0 z" /><path
         inkscape:connector-curvature="0"
         id="path3905"
         style="opacity:0.57347999000000005;color:#000000;enable-background:accumulate;fill:#000000;fill-opacity:1;stroke-width:1.99993252999999993;stroke-miterlimit:4;stroke-dasharray:none;stroke:#000000;stroke-opacity:1"
         transform="translate(46.214,-0.25254)"
         d="m 352.54,427.33 a 12.3745,7.8290163 0 1 1 -24.749,0 12.3745,7.8290163 0 1 1 24.749,0 z" /><path
         inkscape:connector-curvature="0"
         id="path3907"
         style="opacity:0.75626998999999984;color:#000000;enable-background:accumulate;fill:#000000;fill-opacity:1;stroke-width:2.70055755000000008;stroke-miterlimit:4;stroke-dasharray:none;stroke:#000000;stroke-opacity:1"
         transform="matrix(0.97491,-0.74221,-0.012035,0.57171,15.049,492.53)"
         d="m 377.62,510.76 a 8.5082,13.75 0 1 1 -17.016,0 8.5082,13.75 0 1 1 17.016,0 z" /><path
         inkscape:connector-curvature="0"
         id="path3909"
         style="opacity:0.83870999000000002;color:#000000;enable-background:accumulate;fill:#000000;fill-opacity:1;stroke-width:2.70055755000000008;stroke-miterlimit:4;stroke-dasharray:none;stroke:#000000;stroke-opacity:1"
         transform="matrix(0.97491,-0.74221,-0.012035,0.57171,38.621,496.99)"
         d="m 377.62,510.76 a 8.5082,13.75 0 1 1 -17.016,0 8.5082,13.75 0 1 1 17.016,0 z" /><path
         inkscape:connector-curvature="0"
         id="path3911"
         style="opacity:0.78852999999999984;color:#000000;enable-background:accumulate;fill:#000000;fill-opacity:1;stroke-width:2.70055755000000008;stroke-miterlimit:4;stroke-dasharray:none;stroke:#000000;stroke-opacity:1"
         transform="matrix(0.97491,-0.74221,-0.012035,0.57171,60.228,501.82)"
         d="m 377.62,510.76 a 8.5082,13.75 0 1 1 -17.016,0 8.5082,13.75 0 1 1 17.016,0 z" /><path
         inkscape:connector-curvature="0"
         id="path3913"
         style="opacity:0.78135997999999984;color:#000000;enable-background:accumulate;fill:#000000;fill-opacity:1;stroke-width:2.70055755000000008;stroke-miterlimit:4;stroke-dasharray:none;stroke:#000000;stroke-opacity:1"
         transform="matrix(0.97491,-0.74221,-0.012035,0.57171,60.942,458.42)"
         d="m 377.62,510.76 a 8.5082,13.75 0 1 1 -17.016,0 8.5082,13.75 0 1 1 17.016,0 z" /><path
         inkscape:connector-curvature="0"
         id="path3915"
         style="opacity:0.81362000000000001;color:#000000;enable-background:accumulate;fill:#000000;fill-opacity:1;stroke-width:2.70055755000000008;stroke-miterlimit:4;stroke-dasharray:none;stroke:#000000;stroke-opacity:1"
         transform="matrix(0.97491,-0.74221,-0.012035,0.57171,17.013,535.21)"
         d="m 377.62,510.76 a 8.5082,13.75 0 1 1 -17.016,0 8.5082,13.75 0 1 1 17.016,0 z" /><path
         inkscape:connector-curvature="0"
         id="path3917"
         style="opacity:0.57347999000000005;color:#000000;enable-background:accumulate;fill:#000000;fill-opacity:1;stroke-width:2.70055755000000008;stroke-miterlimit:4;stroke-dasharray:none;stroke:#000000;stroke-opacity:1"
         transform="matrix(-0.97491,-0.74221,0.012035,0.57171,639.62,499.1)"
         d="m 377.62,510.76 a 8.5082,13.75 0 1 1 -17.016,0 8.5082,13.75 0 1 1 17.016,0 z" /></g></g></svg>