<?xml version="1.0" encoding="UTF-8" standalone="no"?>
<!-- Created with Inkscape (http://www.inkscape.org/) -->

<svg
   xmlns:dc="http://purl.org/dc/elements/1.1/"
   xmlns:cc="http://creativecommons.org/ns#"
   xmlns:rdf="http://www.w3.org/1999/02/22-rdf-syntax-ns#"
   xmlns:svg="http://www.w3.org/2000/svg"
   xmlns="http://www.w3.org/2000/svg"
   xmlns:sodipodi="http://sodipodi.sourceforge.net/DTD/sodipodi-0.dtd"
   xmlns:inkscape="http://www.inkscape.org/namespaces/inkscape"
   width="765"
   height="765"
   id="svg2"
   version="1.1"
   inkscape:version="0.48.4 r9939"
   sodipodi:docname="New document 1">
  <defs
     id="defs4" />
  <sodipodi:namedview
     id="base"
     pagecolor="#ffffff"
     bordercolor="#666666"
     borderopacity="1.0"
     inkscape:pageopacity="0.0"
     inkscape:pageshadow="2"
     inkscape:zoom="0.70710678"
     inkscape:cx="507.96707"
     inkscape:cy="404.76957"
     inkscape:document-units="px"
     inkscape:current-layer="layer4"
     showgrid="false"
     height="765px"
     showguides="true"
     inkscape:guide-bbox="true"
     inkscape:window-width="1311"
     inkscape:window-height="744"
     inkscape:window-x="55"
     inkscape:window-y="24"
     inkscape:window-maximized="1" />
  <metadata
     id="metadata7">
    <rdf:RDF>
      <cc:Work
         rdf:about="">
        <dc:format>image/svg+xml</dc:format>
        <dc:type
           rdf:resource="http://purl.org/dc/dcmitype/StillImage" />
        <dc:title></dc:title>
      </cc:Work>
    </rdf:RDF>
  </metadata>
  <g
     inkscape:label="Background"
     inkscape:groupmode="layer"
     id="layer1"
     transform="translate(0,-287.36218)">
    <rect
       style="fill:none;stroke:#000000;stroke-width:25;stroke-linejoin:round;stroke-miterlimit:4;stroke-opacity:1;stroke-dasharray:none"
       id="rect2985"
       width="732.57593"
       height="733.96613"
       x="16.212036"
       y="302.87912"
       rx="50"
       ry="50" />
  </g>
  <g
     inkscape:groupmode="layer"
     id="layer2"
     inkscape:label="Layer 1"
     style="display:none">
    <path
       transform="translate(2.001953e-7,3.1689453e-6)"
       sodipodi:type="arc"
       style="fill:#000000;fill-opacity:1;stroke:#000000;stroke-width:25;stroke-linecap:round;stroke-linejoin:round;stroke-miterlimit:4;stroke-opacity:1;stroke-dasharray:none"
       id="path3761"
       sodipodi:cx="381.83765"
       sodipodi:cy="383.16235"
       sodipodi:rx="39.597977"
       sodipodi:ry="39.597977"
       d="m 421.43562,383.16235 a 39.597977,39.597977 0 1 1 -79.19595,0 39.597977,39.597977 0 1 1 79.19595,0 z" />
  </g>
  <g
     inkscape:groupmode="layer"
     id="layer3"
     inkscape:label="Layer 2"
     style="display:none">
    <path
       transform="translate(200,-200)"
       sodipodi:type="arc"
       style="fill:#000000;fill-opacity:1;stroke:#000000;stroke-width:25;stroke-linecap:round;stroke-linejoin:round;stroke-miterlimit:4;stroke-opacity:1;stroke-dasharray:none"
       id="path3761-4"
       sodipodi:cx="381.83765"
       sodipodi:cy="383.16235"
       sodipodi:rx="39.597977"
       sodipodi:ry="39.597977"
       d="m 421.43562,383.16235 a 39.597977,39.597977 0 1 1 -79.19595,0 39.597977,39.597977 0 1 1 79.19595,0 z" />
    <path
       transform="translate(-200,200)"
       sodipodi:type="arc"
       style="fill:#000000;fill-opacity:1;stroke:#000000;stroke-width:25;stroke-linecap:round;stroke-linejoin:round;stroke-miterlimit:4;stroke-opacity:1;stroke-dasharray:none"
       id="path3761-49"
       sodipodi:cx="381.83765"
       sodipodi:cy="383.16235"
       sodipodi:rx="39.597977"
       sodipodi:ry="39.597977"
       d="m 421.43562,383.16235 a 39.597977,39.597977 0 1 1 -79.19595,0 39.597977,39.597977 0 1 1 79.19595,0 z" />
  </g>
  <g
     inkscape:groupmode="layer"
     id="layer4"
     inkscape:label="Layer 3"
     style="display:none">
    <path
       transform="translate(200,-200)"
       sodipodi:type="arc"
       style="fill:#000000;fill-opacity:1;stroke:#000000;stroke-width:25;stroke-linecap:round;stroke-linejoin:round;stroke-miterlimit:4;stroke-opacity:1;stroke-dasharray:none"
       id="path3761-7"
       sodipodi:cx="381.83765"
       sodipodi:cy="383.16235"
       sodipodi:rx="39.597977"
       sodipodi:ry="39.597977"
       d="m 421.43562,383.16235 a 39.597977,39.597977 0 1 1 -79.19595,0 39.597977,39.597977 0 1 1 79.19595,0 z" />
    <path
       transform="translate(-200,200)"
       sodipodi:type="arc"
       style="fill:#000000;fill-opacity:1;stroke:#000000;stroke-width:25;stroke-linecap:round;stroke-linejoin:round;stroke-miterlimit:4;stroke-opacity:1;stroke-dasharray:none"
       id="path3761-0"
       sodipodi:cx="381.83765"
       sodipodi:cy="383.16235"
       sodipodi:rx="39.597977"
       sodipodi:ry="39.597977"
       d="m 421.43562,383.16235 a 39.597977,39.597977 0 1 1 -79.19595,0 39.597977,39.597977 0 1 1 79.19595,0 z" />
    <path
       transform="translate(2.001953e-7,3.1689453e-6)"
       sodipodi:type="arc"
       style="fill:#000000;fill-opacity:1;stroke:#000000;stroke-width:25;stroke-linecap:round;stroke-linejoin:round;stroke-miterlimit:4;stroke-opacity:1;stroke-dasharray:none"
       id="path3761-2"
       sodipodi:cx="381.83765"
       sodipodi:cy="383.16235"
       sodipodi:rx="39.597977"
       sodipodi:ry="39.597977"
       d="m 421.43562,383.16235 a 39.597977,39.597977 0 1 1 -79.19595,0 39.597977,39.597977 0 1 1 79.19595,0 z" />
  </g>
  <g
     inkscape:groupmode="layer"
     id="layer5"
     inkscape:label="Layer 4"
     style="display:none">
    <path
       transform="translate(200,-200)"
       sodipodi:type="arc"
       style="fill:#000000;fill-opacity:1;stroke:#000000;stroke-width:25;stroke-linecap:round;stroke-linejoin:round;stroke-miterlimit:4;stroke-opacity:1;stroke-dasharray:none"
       id="path3761-01"
       sodipodi:cx="381.83765"
       sodipodi:cy="383.16235"
       sodipodi:rx="39.597977"
       sodipodi:ry="39.597977"
       d="m 421.43562,383.16235 a 39.597977,39.597977 0 1 1 -79.19595,0 39.597977,39.597977 0 1 1 79.19595,0 z" />
    <path
       transform="translate(200,200)"
       sodipodi:type="arc"
       style="fill:#000000;fill-opacity:1;stroke:#000000;stroke-width:25;stroke-linecap:round;stroke-linejoin:round;stroke-miterlimit:4;stroke-opacity:1;stroke-dasharray:none"
       id="path3761-43"
       sodipodi:cx="381.83765"
       sodipodi:cy="383.16235"
       sodipodi:rx="39.597977"
       sodipodi:ry="39.597977"
       d="m 421.43562,383.16235 a 39.597977,39.597977 0 1 1 -79.19595,0 39.597977,39.597977 0 1 1 79.19595,0 z" />
    <path
       transform="translate(-200,200)"
       sodipodi:type="arc"
       style="fill:#000000;fill-opacity:1;stroke:#000000;stroke-width:25;stroke-linecap:round;stroke-linejoin:round;stroke-miterlimit:4;stroke-opacity:1;stroke-dasharray:none"
       id="path3761-03"
       sodipodi:cx="381.83765"
       sodipodi:cy="383.16235"
       sodipodi:rx="39.597977"
       sodipodi:ry="39.597977"
       d="m 421.43562,383.16235 a 39.597977,39.597977 0 1 1 -79.19595,0 39.597977,39.597977 0 1 1 79.19595,0 z" />
    <path
       transform="translate(-200,-200)"
       sodipodi:type="arc"
       style="fill:#000000;fill-opacity:1;stroke:#000000;stroke-width:25;stroke-linecap:round;stroke-linejoin:round;stroke-miterlimit:4;stroke-opacity:1;stroke-dasharray:none"
       id="path3761-8"
       sodipodi:cx="381.83765"
       sodipodi:cy="383.16235"
       sodipodi:rx="39.597977"
       sodipodi:ry="39.597977"
       d="m 421.43562,383.16235 a 39.597977,39.597977 0 1 1 -79.19595,0 39.597977,39.597977 0 1 1 79.19595,0 z" />
  </g>
  <g
     inkscape:groupmode="layer"
     id="layer6"
     inkscape:label="Layer 5"
     style="display:none">
    <path
       transform="translate(2.001953e-7,3.1689453e-6)"
       sodipodi:type="arc"
       style="fill:#000000;fill-opacity:1;stroke:#000000;stroke-width:25;stroke-linecap:round;stroke-linejoin:round;stroke-miterlimit:4;stroke-opacity:1;stroke-dasharray:none"
       id="path3761-6"
       sodipodi:cx="381.83765"
       sodipodi:cy="383.16235"
       sodipodi:rx="39.597977"
       sodipodi:ry="39.597977"
       d="m 421.43562,383.16235 a 39.597977,39.597977 0 1 1 -79.19595,0 39.597977,39.597977 0 1 1 79.19595,0 z" />
    <path
       transform="translate(200,-200)"
       sodipodi:type="arc"
       style="fill:#000000;fill-opacity:1;stroke:#000000;stroke-width:25;stroke-linecap:round;stroke-linejoin:round;stroke-miterlimit:4;stroke-opacity:1;stroke-dasharray:none"
       id="path3761-1"
       sodipodi:cx="381.83765"
       sodipodi:cy="383.16235"
       sodipodi:rx="39.597977"
       sodipodi:ry="39.597977"
       d="m 421.43562,383.16235 a 39.597977,39.597977 0 1 1 -79.19595,0 39.597977,39.597977 0 1 1 79.19595,0 z" />
    <path
       transform="translate(200,200)"
       sodipodi:type="arc"
       style="fill:#000000;fill-opacity:1;stroke:#000000;stroke-width:25;stroke-linecap:round;stroke-linejoin:round;stroke-miterlimit:4;stroke-opacity:1;stroke-dasharray:none"
       id="path3761-64"
       sodipodi:cx="381.83765"
       sodipodi:cy="383.16235"
       sodipodi:rx="39.597977"
       sodipodi:ry="39.597977"
       d="m 421.43562,383.16235 a 39.597977,39.597977 0 1 1 -79.19595,0 39.597977,39.597977 0 1 1 79.19595,0 z" />
    <path
       transform="translate(-200,200)"
       sodipodi:type="arc"
       style="fill:#000000;fill-opacity:1;stroke:#000000;stroke-width:25;stroke-linecap:round;stroke-linejoin:round;stroke-miterlimit:4;stroke-opacity:1;stroke-dasharray:none"
       id="path3761-07"
       sodipodi:cx="381.83765"
       sodipodi:cy="383.16235"
       sodipodi:rx="39.597977"
       sodipodi:ry="39.597977"
       d="m 421.43562,383.16235 a 39.597977,39.597977 0 1 1 -79.19595,0 39.597977,39.597977 0 1 1 79.19595,0 z" />
    <path
       transform="translate(-200,-200)"
       sodipodi:type="arc"
       style="fill:#000000;fill-opacity:1;stroke:#000000;stroke-width:25;stroke-linecap:round;stroke-linejoin:round;stroke-miterlimit:4;stroke-opacity:1;stroke-dasharray:none"
       id="path3761-61"
       sodipodi:cx="381.83765"
       sodipodi:cy="383.16235"
       sodipodi:rx="39.597977"
       sodipodi:ry="39.597977"
       d="m 421.43562,383.16235 a 39.597977,39.597977 0 1 1 -79.19595,0 39.597977,39.597977 0 1 1 79.19595,0 z" />
  </g>
  <g
     inkscape:groupmode="layer"
     id="layer7"
     inkscape:label="Layer 6"
     style="display:none">
    <path
       transform="translate(-200,-200)"
       sodipodi:type="arc"
       style="fill:#000000;fill-opacity:1;stroke:#000000;stroke-width:25;stroke-linecap:round;stroke-linejoin:round;stroke-miterlimit:4;stroke-opacity:1;stroke-dasharray:none"
       id="path3761-5"
       sodipodi:cx="381.83765"
       sodipodi:cy="383.16235"
       sodipodi:rx="39.597977"
       sodipodi:ry="39.597977"
       d="m 421.43562,383.16235 a 39.597977,39.597977 0 1 1 -79.19595,0 39.597977,39.597977 0 1 1 79.19595,0 z" />
    <path
       transform="translate(-200,200)"
       sodipodi:type="arc"
       style="fill:#000000;fill-opacity:1;stroke:#000000;stroke-width:25;stroke-linecap:round;stroke-linejoin:round;stroke-miterlimit:4;stroke-opacity:1;stroke-dasharray:none"
       id="path3761-3"
       sodipodi:cx="381.83765"
       sodipodi:cy="383.16235"
       sodipodi:rx="39.597977"
       sodipodi:ry="39.597977"
       d="m 421.43562,383.16235 a 39.597977,39.597977 0 1 1 -79.19595,0 39.597977,39.597977 0 1 1 79.19595,0 z" />
    <path
       transform="translate(200,-200)"
       sodipodi:type="arc"
       style="fill:#000000;fill-opacity:1;stroke:#000000;stroke-width:25;stroke-linecap:round;stroke-linejoin:round;stroke-miterlimit:4;stroke-opacity:1;stroke-dasharray:none"
       id="path3761-37"
       sodipodi:cx="381.83765"
       sodipodi:cy="383.16235"
       sodipodi:rx="39.597977"
       sodipodi:ry="39.597977"
       d="m 421.43562,383.16235 a 39.597977,39.597977 0 1 1 -79.19595,0 39.597977,39.597977 0 1 1 79.19595,0 z" />
    <path
       transform="translate(200,200)"
       sodipodi:type="arc"
       style="fill:#000000;fill-opacity:1;stroke:#000000;stroke-width:25;stroke-linecap:round;stroke-linejoin:round;stroke-miterlimit:4;stroke-opacity:1;stroke-dasharray:none"
       id="path3761-71"
       sodipodi:cx="381.83765"
       sodipodi:cy="383.16235"
       sodipodi:rx="39.597977"
       sodipodi:ry="39.597977"
       d="m 421.43562,383.16235 a 39.597977,39.597977 0 1 1 -79.19595,0 39.597977,39.597977 0 1 1 79.19595,0 z" />
    <path
       transform="translate(-200,3.1689453e-6)"
       sodipodi:type="arc"
       style="fill:#000000;fill-opacity:1;stroke:#000000;stroke-width:25;stroke-linecap:round;stroke-linejoin:round;stroke-miterlimit:4;stroke-opacity:1;stroke-dasharray:none"
       id="path3761-438"
       sodipodi:cx="381.83765"
       sodipodi:cy="383.16235"
       sodipodi:rx="39.597977"
       sodipodi:ry="39.597977"
       d="m 421.43562,383.16235 a 39.597977,39.597977 0 1 1 -79.19595,0 39.597977,39.597977 0 1 1 79.19595,0 z" />
    <path
       transform="translate(200,3.1689453e-6)"
       sodipodi:type="arc"
       style="fill:#000000;fill-opacity:1;stroke:#000000;stroke-width:25;stroke-linecap:round;stroke-linejoin:round;stroke-miterlimit:4;stroke-opacity:1;stroke-dasharray:none"
       id="path3761-22"
       sodipodi:cx="381.83765"
       sodipodi:cy="383.16235"
       sodipodi:rx="39.597977"
       sodipodi:ry="39.597977"
       d="m 421.43562,383.16235 a 39.597977,39.597977 0 1 1 -79.19595,0 39.597977,39.597977 0 1 1 79.19595,0 z" />
  </g>
</svg>
